<svg width="157" height="35" viewBox="0 0 157 35" fill="none" xmlns="http://www.w3.org/2000/svg">
<path d="M36.55 0H6.45C4.73935 0 3.09877 0.691404 1.88916 1.92211C0.679552 3.15282 0 4.82202 0 6.5625V28.4375C0 30.178 0.679552 31.8472 1.88916 33.0779C3.09877 34.3086 4.73935 35 6.45 35H36.55C38.2606 35 39.9012 34.3086 41.1108 33.0779C42.3204 31.8472 43 30.178 43 28.4375V6.5625C43 4.82202 42.3204 3.15282 41.1108 1.92211C39.9012 0.691404 38.2606 0 36.55 0ZM38.7 22.5312H32.25C30.9385 22.5312 29.6807 22.0012 28.7534 21.0576C27.826 20.1141 27.305 18.8344 27.305 17.5C27.305 16.1656 27.826 14.8859 28.7534 13.9424C29.6807 12.9988 30.9385 12.4688 32.25 12.4688H38.7V22.5312ZM38.7 8.75H32.25C29.9691 8.75 27.7817 9.67187 26.1689 11.3128C24.5561 12.9538 23.65 15.1794 23.65 17.5C23.65 19.8206 24.5561 22.0462 26.1689 23.6872C27.7817 25.3281 29.9691 26.25 32.25 26.25H38.7V28.4375C38.7 29.0177 38.4735 29.5741 38.0703 29.9843C37.6671 30.3945 37.1202 30.625 36.55 30.625H6.45C5.87978 30.625 5.33292 30.3945 4.92972 29.9843C4.52652 29.5741 4.3 29.0177 4.3 28.4375V6.5625C4.3 5.98234 4.52652 5.42594 4.92972 5.0157C5.33292 4.60547 5.87978 4.375 6.45 4.375H36.55C37.1202 4.375 37.6671 4.60547 38.0703 5.0157C38.4735 5.42594 38.7 5.98234 38.7 6.5625V8.75ZM30.1 17.5C30.1 17.9326 30.2261 18.3556 30.4623 18.7153C30.6986 19.075 31.0344 19.3554 31.4272 19.521C31.8201 19.6866 32.2524 19.7299 32.6694 19.6455C33.0865 19.5611 33.4696 19.3527 33.7703 19.0468C34.071 18.7409 34.2757 18.3511 34.3587 17.9268C34.4416 17.5024 34.3991 17.0626 34.2363 16.6629C34.0736 16.2632 33.798 15.9215 33.4445 15.6812C33.0909 15.4408 32.6752 15.3125 32.25 15.3125C31.6798 15.3125 31.1329 15.543 30.7297 15.9532C30.3265 16.3634 30.1 16.9198 30.1 17.5Z" fill="white"/>
<path d="M73.208 19.112C73.208 19.48 73.184 19.848 73.136 20.216H64.232C64.28 20.952 64.48 21.504 64.832 21.872C65.2 22.224 65.664 22.4 66.224 22.4C67.008 22.4 67.568 22.048 67.904 21.344H72.92C72.712 22.272 72.304 23.104 71.696 23.84C71.104 24.56 70.352 25.128 69.44 25.544C68.528 25.96 67.52 26.168 66.416 26.168C65.088 26.168 63.904 25.888 62.864 25.328C61.84 24.768 61.032 23.968 60.44 22.928C59.864 21.888 59.576 20.664 59.576 19.256C59.576 17.848 59.864 16.632 60.44 15.608C61.016 14.568 61.816 13.768 62.84 13.208C63.88 12.648 65.072 12.368 66.416 12.368C67.744 12.368 68.92 12.64 69.944 13.184C70.968 13.728 71.768 14.512 72.344 15.536C72.92 16.544 73.208 17.736 73.208 19.112ZM68.408 17.936C68.408 17.36 68.216 16.912 67.832 16.592C67.448 16.256 66.968 16.088 66.392 16.088C65.816 16.088 65.344 16.248 64.976 16.568C64.608 16.872 64.368 17.328 64.256 17.936H68.408ZM77.4131 26.192C76.5811 26.192 75.9091 25.968 75.3971 25.52C74.9011 25.056 74.6531 24.472 74.6531 23.768C74.6531 23.064 74.9011 22.48 75.3971 22.016C75.9091 21.552 76.5811 21.32 77.4131 21.32C78.2291 21.32 78.8851 21.552 79.3811 22.016C79.8931 22.48 80.1491 23.064 80.1491 23.768C80.1491 24.456 79.8931 25.032 79.3811 25.496C78.8851 25.96 78.2291 26.192 77.4131 26.192ZM100.568 12.776L96.4638 26H93.5838L90.9198 16.232L88.2558 26H85.3758L81.2478 12.776H84.0318L86.7918 23.408L89.5998 12.776H92.4558L95.1438 23.36L97.8798 12.776H100.568ZM101.701 19.328C101.701 18 101.973 16.824 102.517 15.8C103.077 14.776 103.829 13.984 104.773 13.424C105.733 12.848 106.789 12.56 107.941 12.56C108.981 12.56 109.885 12.768 110.653 13.184C111.437 13.584 112.061 14.088 112.525 14.696V12.776H115.285V26H112.525V24.032C112.061 24.656 111.429 25.176 110.629 25.592C109.829 26.008 108.917 26.216 107.893 26.216C106.757 26.216 105.717 25.928 104.773 25.352C103.829 24.76 103.077 23.944 102.517 22.904C101.973 21.848 101.701 20.656 101.701 19.328ZM112.525 19.376C112.525 18.464 112.333 17.672 111.949 17C111.581 16.328 111.093 15.816 110.485 15.464C109.877 15.112 109.221 14.936 108.517 14.936C107.813 14.936 107.157 15.112 106.549 15.464C105.941 15.8 105.445 16.304 105.061 16.976C104.693 17.632 104.509 18.416 104.509 19.328C104.509 20.24 104.693 21.04 105.061 21.728C105.445 22.416 105.941 22.944 106.549 23.312C107.173 23.664 107.829 23.84 108.517 23.84C109.221 23.84 109.877 23.664 110.485 23.312C111.093 22.96 111.581 22.448 111.949 21.776C112.333 21.088 112.525 20.288 112.525 19.376ZM121.614 8.24V26H118.878V8.24H121.614ZM127.942 8.24V26H125.206V8.24H127.942ZM143.654 19.064C143.654 19.56 143.622 20.008 143.558 20.408H133.454C133.534 21.464 133.926 22.312 134.63 22.952C135.334 23.592 136.198 23.912 137.222 23.912C138.694 23.912 139.734 23.296 140.342 22.064H143.294C142.894 23.28 142.166 24.28 141.11 25.064C140.07 25.832 138.774 26.216 137.222 26.216C135.958 26.216 134.822 25.936 133.814 25.376C132.822 24.8 132.038 24 131.462 22.976C130.902 21.936 130.622 20.736 130.622 19.376C130.622 18.016 130.894 16.824 131.438 15.8C131.998 14.76 132.774 13.96 133.766 13.4C134.774 12.84 135.926 12.56 137.222 12.56C138.47 12.56 139.582 12.832 140.558 13.376C141.534 13.92 142.294 14.688 142.838 15.68C143.382 16.656 143.654 17.784 143.654 19.064ZM140.798 18.2C140.782 17.192 140.422 16.384 139.718 15.776C139.014 15.168 138.142 14.864 137.102 14.864C136.158 14.864 135.35 15.168 134.678 15.776C134.006 16.368 133.606 17.176 133.478 18.2H140.798ZM149.539 15.008V22.328C149.539 22.824 149.651 23.184 149.875 23.408C150.115 23.616 150.515 23.72 151.075 23.72H152.755V26H150.595C149.363 26 148.419 25.712 147.763 25.136C147.107 24.56 146.779 23.624 146.779 22.328V15.008H145.219V12.776H146.779V9.488H149.539V12.776H152.755V15.008H149.539Z" fill="white"/>
</svg>
